<?xml version="1.0" encoding="utf-8"?>

<!DOCTYPE svg PUBLIC "-//W3C//DTD SVG 1.1//EN" "http://www.w3.org/Graphics/SVG/1.1/DTD/svg11.dtd">
<svg version="1.1" id="Layer_1" xmlns="http://www.w3.org/2000/svg" xmlns:xlink="http://www.w3.org/1999/xlink" x="0px" y="0px"
	 width="502px" height="327px" viewBox="0 0 502 327" enable-background="new 0 0 502 327" xml:space="preserve">

<defs>
	<style type="text/css">
	text {
	  font-family: Helvetica, Verdana, ArialUnicodeMS, san-serif
	}
	</style>
</defs>

<g>
   <desc>
	PS 3.8 Network Communication Support for Message Exchange
   </desc>
</g>

<g>
	<rect x="1" y="1" fill="#F6F0D8" width="500" height="325"/>
	<g>
		
			<line fill="none" stroke="#005695" stroke-width="7" stroke-linecap="round" stroke-miterlimit="1" x1="251" y1="103.822" x2="251" y2="278.992"/>
		<g>
			<path fill="#CCDEF0" d="M140.94,129.983c0-1.98,1.62-3.6,3.6-3.6h212.92c1.979,0,3.6,1.62,3.6,3.6v24.762
				c0,1.98-1.62,3.6-3.6,3.6h-212.92c-1.98,0-3.6-1.62-3.6-3.6V129.983z"/>
		</g>
		<text transform="matrix(1 0 0 1 146.7793 142.3618)" font-size="11">BOUNDARY: DICOM Upper Layer Service</text>
		
			<line fill="#4F8ABE" stroke="#005695" stroke-width="4" stroke-linecap="round" stroke-miterlimit="1" x1="155.079" y1="150.46" x2="346.922" y2="150.46"/>
		<g>
			<path fill="#CCDEF0" d="M141.329,283.093c0-1.979,1.62-3.6,3.6-3.6h212.144c1.979,0,3.6,1.62,3.6,3.6v22.229
				c0,1.979-1.62,3.6-3.6,3.6H144.929c-1.98,0-3.6-1.62-3.6-3.6V283.093z"/>
			<path fill="none" stroke="#000000" stroke-width="0.75" d="M141.329,283.093c0-1.979,1.62-3.6,3.6-3.6h212.144
				c1.979,0,3.6,1.62,3.6,3.6v22.229c0,1.979-1.62,3.6-3.6,3.6H144.929c-1.98,0-3.6-1.62-3.6-3.6V283.093z"/>
		</g>
		<g>
			<text transform="matrix(1 0 0 1 230.8291 297.2734)" font-size="11">Network</text>
		</g>
		<g>
			<path fill="#CCDEF0" d="M141.329,232.479c0-1.979,1.62-3.6,3.6-3.6h212.144c1.979,0,3.6,1.62,3.6,3.6v22.229
				c0,1.979-1.62,3.6-3.6,3.6H144.929c-1.98,0-3.6-1.62-3.6-3.6V232.479z"/>
			<path fill="none" stroke="#000000" stroke-width="0.75" d="M141.329,232.479c0-1.979,1.62-3.6,3.6-3.6h212.144
				c1.979,0,3.6,1.62,3.6,3.6v22.229c0,1.979-1.62,3.6-3.6,3.6H144.929c-1.98,0-3.6-1.62-3.6-3.6V232.479z"/>
		</g>
		<g>
			<text transform="matrix(1 0 0 1 192.8525 246.6582)" font-size="11">TCP/IP Transport Layer</text>
		</g>
		<g>
			<path fill="#CCDEF0" d="M141.002,181.864c0-1.979,1.62-3.6,3.6-3.6h212.796c1.979,0,3.6,1.62,3.6,3.6v22.229
				c0,1.979-1.62,3.6-3.6,3.6H144.602c-1.98,0-3.6-1.62-3.6-3.6V181.864z"/>
			<path fill="none" stroke="#000000" stroke-width="0.75" d="M141.002,181.864c0-1.979,1.62-3.6,3.6-3.6h212.796
				c1.979,0,3.6,1.62,3.6,3.6v22.229c0,1.979-1.62,3.6-3.6,3.6H144.602c-1.98,0-3.6-1.62-3.6-3.6V181.864z"/>
		</g>
		<g>
			<text transform="matrix(1 0 0 1 151.9707 196.0449)" font-size="11">DICOM Upper Layer Protocol for TCP/IP</text>
		</g>
		<g>
			<path fill="#CCDEF0" d="M140.94,82.104c0-1.98,1.62-3.6,3.6-3.6h212.92c1.979,0,3.6,1.62,3.6,3.6v19.291c0,1.98-1.62,3.6-3.6,3.6
				h-212.92c-1.98,0-3.6-1.62-3.6-3.6V82.104z"/>
			<path fill="none" stroke="#000000" stroke-width="0.75" d="M140.94,82.104c0-1.98,1.62-3.6,3.6-3.6h212.92
				c1.979,0,3.6,1.62,3.6,3.6v19.291c0,1.98-1.62,3.6-3.6,3.6h-212.92c-1.98,0-3.6-1.62-3.6-3.6V82.104z"/>
		</g>
		<text transform="matrix(1.1108 0 0 1 148.6162 94.7607)" font-size="10.8028">DICOM Application Message Exhange</text>
		<polygon fill="#4F8ABE" points="159.497,18.081 346.564,18.081 346.084,35.744 391.662,35.744 251.464,76.85 110.338,35.744 
			159.497,35.744 		"/>
		<text transform="matrix(1.1937 0 0 1 190.5273 32.8208)"><tspan x="0" y="0" fill="#FFFFFF" font-size="13.4035"> Medical Imaging</tspan><tspan x="17.873" y="16.084" fill="#FFFFFF" font-size="13.4035">Application</tspan></text>
	</g>
</g>
</svg>
